<svg width="16" height="13" viewBox="0 0 16 13" fill="none" xmlns="http://www.w3.org/2000/svg">
<path d="M13.3708 0.134216H2.87085C2.27411 0.134216 1.70182 0.371269 1.27986 0.793226C0.857903 1.21518 0.62085 1.78748 0.62085 2.38422V9.88422C0.62085 10.481 0.857903 11.0532 1.27986 11.4752C1.70182 11.8972 2.27411 12.1342 2.87085 12.1342H13.3708C13.9676 12.1342 14.5399 11.8972 14.9618 11.4752C15.3838 11.0532 15.6208 10.481 15.6208 9.88422V2.38422C15.6208 1.78748 15.3838 1.21518 14.9618 0.793226C14.5399 0.371269 13.9676 0.134216 13.3708 0.134216V0.134216ZM12.8683 1.63422L8.12085 5.19672L3.37335 1.63422H12.8683ZM13.3708 10.6342H2.87085C2.67194 10.6342 2.48117 10.5552 2.34052 10.4145C2.19987 10.2739 2.12085 10.0831 2.12085 9.88422V2.57172L7.67085 6.73422C7.80067 6.83158 7.95857 6.88422 8.12085 6.88422C8.28313 6.88422 8.44103 6.83158 8.57085 6.73422L14.1208 2.57172V9.88422C14.1208 10.0831 14.0418 10.2739 13.9012 10.4145C13.7605 10.5552 13.5698 10.6342 13.3708 10.6342Z" fill="#C4C4C4"/>
</svg>
